<?xml version="1.0" encoding="utf-8"?>
<!-- Generator: Adobe Illustrator 21.0.0, SVG Export Plug-In . SVG Version: 6.00 Build 0)  -->
<svg version="1.1" id="Layer_1" xmlns="http://www.w3.org/2000/svg" xmlns:xlink="http://www.w3.org/1999/xlink" x="0px" y="0px"
	 viewBox="0 0 67.1 67.1" style="enable-background:new 0 0 67.1 67.1;" xml:space="preserve">
<style type="text/css">
	.st0{fill:#FFFFFF;}
</style>
<path class="st0" d="M33.5,21c-5,0-9.1,3.8-9.5,8.7c0,0.1,0,0.3,0,0.4v13c0,1.6,1.3,2.8,2.8,2.8c1.6,0,2.8-1.3,2.8-2.8v-2.3h7.8v2.3
	c0,1.6,1.3,2.8,2.8,2.8s2.8-1.3,2.8-2.8v-13c0-0.1,0-0.3,0-0.4C42.6,24.9,38.5,21,33.5,21z M29.6,35.2v-4.6c0-2.1,1.7-3.9,3.9-3.9
	s3.9,1.7,3.9,3.9v4.6H29.6z"/>
<path class="st0" d="M33.5,0C15,0,0,15,0,33.5s15,33.5,33.5,33.5s33.5-15,33.5-33.5S52,0,33.5,0z M33.5,61.4
	c-15.4,0-27.9-12.5-27.9-27.9S18.2,5.7,33.5,5.7s27.9,12.5,27.9,27.9S48.9,61.4,33.5,61.4z"/>
</svg>